{"title":"Somnus 2016 WEB-DL XviD AC3-FGT","uid":15979470,"size":1488920214,"categoryP":"video","categoryS":"movies","magnet":"?xt=urn:btih:bbf23c6facdce02b7ba177d0a8749a5ddb97ccd0&amp;dn=Somnus+2016+WEB-DL+XviD+AC3-FGT&amp;tr=udp%3A%2F%2Ftracker.leechers-paradise.org%3A6969&amp;tr=udp%3A%2F%2Fzer0day.ch%3A1337&amp;tr=udp%3A%2F%2Fopen.demonii.com%3A1337&amp;tr=udp%3A%2F%2Ftracker.coppersurfer.tk%3A6969&amp;tr=udp%3A%2F%2Fexodus.desync.com%3A6969","seeders":0,"leechers":3,"uploader":"PirateNeon2","files":1,"time":1475880632,"description":"Plot:\tA grief stricken captain embarks on his final mission in command of an ageing cargo ship. The ship's small crew| frustrated and discontent with their lives in deep\r\nspace try to complete a successful mission| but the ship has ideas of it's own. Soon| an 'accident' onboard forces a diversion to Somnus| a derelict asteroid station\r\nin a forgotten sector of the solar system. They soon discover the colony is populated by a mysterious and sinister cult| hell-bent on dark plans for Earth. The\r\ncrew's hope of sanctuary on Somnus soon turns to peril| as they fight for their own survival against the colonists| and humanity's ultimate fate. Terrifying truths\r\nabout the end of life on Earth soon force the captain to face up to his personal torment leading to a climatic and exciting conclusion.\r\n\r\nVideo\r\nID                                       : 0\r\nFormat                                   : MPEG-4 Visual\r\nFormat profile                           :   \r\nFormat settings, BVOP                    : No\r\nFormat settings, QPel                    : No\r\nFormat settings, GMC                     : No warppoints\r\nFormat settings, Matrix                  : Default (H.263)\r\nCodec ID                                 : XVID\r\nCodec ID/Hint                            : XviD\r\nDuration                                 : 1h 22mn\r\nBit rate                                 : 2 001 Kbps\r\nWidth                                    : 720 pixels\r\nHeight                                   : 304 pixels\r\nDisplay aspect ratio                     : 2.40:1\r\nFrame rate                               : 23.976 fps\r\nColor space                              : YUV\r\nChroma subsampling                       : 4:2:0\r\nBit depth                                : 8 bits\r\nScan type                                : Progressive\r\nCompression mode                         : Lossy\r\nBits/(Pixel*Frame)                       : 0.381\r\nStream size                              : 1.16 GiB (84%)\r\nWriting library                          : Lavc57.16.101\r\n\r\nAudio\r\nID                                       : 1\r\nFormat                                   : AC-3\r\nFormat/Info                              : Audio Coding 3\r\nMode extension                           : CM (complete main)\r\nFormat settings, Endianness              : Big\r\nCodec ID                                 : 2000\r\nDuration                                 : 1h 22mn\r\nBit rate mode                            : Constant\r\nBit rate                                 : 384 Kbps\r\nChannel(s)                               : 6 channels\r\nChannel positions                        : Front: L C R, Side: L R, LFE\r\nSampling rate                            : 48.0 KHz\r\nFrame rate                               : 31.250 fps (1536 spf)\r\nCompression mode                         : Lossy\r\nStream size                              : 228 MiB (16%)\r\nAlignment                                : Aligned on interleaves\r\nInterleave, duration                     : 42 ms (1.00 video frame)\r\nInterleave, preload duration             : 512 ms","torrent":{"xt":"urn:btih:bbf23c6facdce02b7ba177d0a8749a5ddb97ccd0","amp;dn":"Somnus+2016+WEB-DL+XviD+AC3-FGT","amp;tr":["udp%3A%2F%2Ftracker.leechers-paradise.org%3A6969","udp%3A%2F%2Fzer0day.ch%3A1337","udp%3A%2F%2Fopen.demonii.com%3A1337","udp%3A%2F%2Ftracker.coppersurfer.tk%3A6969","udp%3A%2F%2Fexodus.desync.com%3A6969"],"infoHash":"bbf23c6facdce02b7ba177d0a8749a5ddb97ccd0","infoHashBuffer":{"type":"Buffer","data":[187,242,60,111,172,220,224,43,123,161,119,208,168,116,154,93,219,151,204,208]},"announce":[],"urlList":[]}}